<?xml version="1.0" encoding="utf-8"?>
<!-- Svg Vector Icons : http://www.onlinewebfonts.com/icon -->
<!DOCTYPE svg PUBLIC "-//W3C//DTD SVG 1.1//EN" "http://www.w3.org/Graphics/SVG/1.1/DTD/svg11.dtd">
<svg version="1.1" xmlns="http://www.w3.org/2000/svg" xmlns:xlink="http://www.w3.org/1999/xlink" x="0px" y="0px" viewBox="0 0 256 256" enable-background="new 0 0 256 256" xml:space="preserve">
<metadata> Svg Vector Icons : http://www.onlinewebfonts.com/icon </metadata>
<g><g><g><path fill="#000000" d="M19.6,66c-3.3,0.8-6.2,3.1-8,6L10,74.8v41v41l1.5,2.7c0.8,1.4,2.7,3.5,4.1,4.5l2.7,1.8h11.3c11.3,0,11.3,0,13.8-1.6c1.3-0.9,3.3-3,4.2-4.5l1.7-2.9l0.2-39.2c0.1-27.1,0-40-0.5-41.9C48,72,45.8,69,42.7,67.2c-2.4-1.3-3.3-1.4-11.9-1.6C25.7,65.6,20.6,65.8,19.6,66z"/><path fill="#000000" d="M127.9,69.1c-3.1,0.6-12.1,2.7-19.9,4.8c-20.1,5.2-34.2,7.3-48.6,7.3h-5.1V114v32.8l5.1,0.3c6.2,0.4,9.6,1.9,19.3,8.3c8.8,5.9,12.7,7.7,19.5,9.6c5.3,1.4,6.9,1.5,17.9,1.6c8.3,0,14.9-0.4,21.1-1.1c6.8-0.8,13.5-1.1,26.9-1.2l17.9-0.1l3.5-1.8c4.4-2.2,7.1-5.7,8.1-10.1c1.7-8.5-3.9-17-14.7-22.1c-6.2-3-10.2-4-18.4-4.8c-3.6-0.4-9.2-0.9-12.4-1.2c-7.7-0.8-10.3-1.6-12.5-3.9c-2.4-2.4-3-4.2-2.2-6.1c0.7-1.6,2-1.9,10.9-3.3c5.6-0.8,7.7-0.4,13.9,3.4c5.2,3.1,11,5.7,12.8,5.7c1.4,0,3.3-1.1,6.1-3.7c3.6-3.3,8-5.4,16.3-7.8c8.4-2.4,10.4-7.1,5.5-12.5c-7.8-8.4-27.8-21.2-39.1-24.9C150.3,67.7,138.6,67,127.9,69.1z"/><path fill="#000000" d="M196.7,111.7c-5.2,1.4-11.5,4.7-15.4,8.3l-3.6,3.3l4.4,2.2l4.4,2.2l1.9-1.5c11.2-8.4,27.9-7.4,38,2.4c6.4,6.2,9.5,13.3,9.5,21.8c0,17.1-13.1,30.3-29.9,30.3c-7.9-0.1-14.4-2.6-20.4-8l-3.6-3.2h-5.6c-3.1,0-5.6,0.1-5.6,0.2c0,0.1,1.1,1.7,2.4,3.7c5,7.4,14.2,13.7,23.3,16c4.8,1.3,14.6,1.3,19.3,0.1c9.4-2.5,18.3-8.7,23.5-16.6c9.7-14.5,9-32.8-1.7-46.9c-5.1-6.8-13.3-12.1-21.8-14.3C211,110.5,201.2,110.5,196.7,111.7z"/><path fill="#000000" d="M204.5,124.1c0,1.1-0.7,1.6-3,2.7c-3.1,1.3-4.5,3-5.8,6.6c-0.7,2-0.6,2.5,1,5.6c0.9,1.9,2,5.1,2.4,7.2c0.7,3.6,0.8,3.9,3,5l2.4,1.1v6.3c0,3.5-0.2,6.3-0.5,6.3c-0.9,0-3-2.9-3.4-4.8c-0.3-1.5-0.5-1.7-2.1-1.3c-0.9,0.2-2.3,1.1-3,2l-1.3,1.7l1.3,2.8c1.6,3.7,3.2,5.4,6.5,6.6c2.5,1,2.6,1.1,2.6,3.6c0,2.4,0.1,2.7,1.4,2.7c1.3,0,1.5-0.3,1.7-2.8c0.2-2.5,0.4-2.9,1.8-3.3c4.9-1.3,8.4-6.8,8.4-13.4c0.1-2.1-0.2-4.7-0.7-5.9c-0.8-2.6-3.7-5.4-7-7l-2.4-1.1l-0.2-6c-0.1-4.6,0-5.8,0.6-5.7c0.4,0.1,1.2,1.1,1.7,2.2c0.9,1.9,1,1.9,3.9,1.6c1.6-0.2,3-0.4,3.1-0.5c0.4-0.4-1-4.4-2.2-6.4c-0.8-1.3-2.3-2.4-4.3-3.3c-2.3-1-3-1.6-3-2.7c0-1.1-0.4-1.4-1.5-1.4C204.9,122.8,204.5,123.1,204.5,124.1z M204.5,138.1c0,2.8-0.2,5.1-0.5,5.1c-1,0-2.6-2.3-2.9-4.3c-0.4-2.4,1.1-5.9,2.5-5.9C204.3,133,204.5,134,204.5,138.1z M211.5,157c1.1,2.5,0.7,4.9-1,7.1c-2.4,2.9-3,2-3-4.1c0-3.1,0.2-5.9,0.4-6C208.7,153.2,210.7,154.8,211.5,157z"/></g></g></g>
</svg>