<svg version="1.1" id="Layer_1" xmlns="http://www.w3.org/2000/svg" xmlns:xlink="http://www.w3.org/1999/xlink" x="0px" y="0px"
	 width="100%" viewBox="0 0 310 163" enable-background="new 0 0 310 163" xml:space="preserve">
<path fill="#F3F6FD" opacity="1.000000" stroke="none" 
	d="
M228.000000,164.000000 
	C152.000015,164.000000 76.500015,164.000000 1.000020,164.000000 
	C1.000014,109.666679 1.000014,55.333363 1.000007,1.000035 
	C104.333305,1.000023 207.666611,1.000023 310.999939,1.000012 
	C310.999939,55.333298 310.999939,109.666595 310.999969,163.999939 
	C283.500000,164.000000 256.000000,164.000000 228.000000,164.000000 
M158.359467,148.072250 
	C161.946228,147.425385 165.631393,147.103165 169.095886,146.052948 
	C173.881744,144.602173 177.173096,141.266937 177.910110,136.178970 
	C179.846039,122.814415 186.173187,111.941483 195.382675,102.194855 
	C206.257019,90.686287 211.234589,76.639816 208.410416,60.885483 
	C202.872665,29.993555 177.753662,14.010043 147.226776,17.692629 
	C127.000458,20.132614 112.559135,31.949415 105.433662,51.186657 
	C98.449928,70.041229 102.425674,87.486397 115.939400,102.112320 
	C125.052902,111.975861 131.396378,122.803421 133.482986,136.081238 
	C134.286438,141.193893 137.356476,144.778961 142.196152,145.981110 
	C147.137100,147.208405 152.330292,147.420166 158.359467,148.072250 
z"/>
<path fill="#31A939" opacity="1.000000" stroke="none" 
	d="
M157.886261,148.074402 
	C152.330292,147.420166 147.137100,147.208405 142.196152,145.981110 
	C137.356476,144.778961 134.286438,141.193893 133.482986,136.081238 
	C131.396378,122.803421 125.052902,111.975861 115.939400,102.112320 
	C102.425674,87.486397 98.449928,70.041229 105.433662,51.186657 
	C112.559135,31.949415 127.000458,20.132614 147.226776,17.692629 
	C177.753662,14.010043 202.872665,29.993555 208.410416,60.885483 
	C211.234589,76.639816 206.257019,90.686287 195.382675,102.194855 
	C186.173187,111.941483 179.846039,122.814415 177.910110,136.178970 
	C177.173096,141.266937 173.881744,144.602173 169.095886,146.052948 
	C165.631393,147.103165 161.946228,147.425385 157.886261,148.074402 
M177.808914,54.827583 
	C176.864014,47.392399 172.333282,42.967201 165.309006,41.793385 
	C159.813324,40.875008 154.047897,40.708935 148.492416,41.209206 
	C139.806610,41.991364 134.460037,47.220501 133.852722,54.326649 
	C132.942413,64.977776 135.859467,69.678474 145.413864,73.027176 
	C151.530746,75.171059 157.806137,76.985023 163.649994,79.717766 
	C165.637650,80.647247 167.490494,83.873871 167.628204,86.157967 
	C167.753647,88.238403 165.710999,92.113167 164.207718,92.331551 
	C158.600952,93.146049 152.621902,93.676186 147.200027,92.456749 
	C144.746780,91.905006 143.273163,86.997673 141.355118,84.066338 
	C140.785873,83.006897 139.317093,83.007294 137.848297,83.006821 
	C132.537994,83.005135 131.777710,83.876236 132.436310,89.036682 
	C133.255981,95.458916 137.298416,99.099998 143.070374,100.982986 
	C150.869904,103.527443 158.797440,103.602859 166.680222,101.287262 
	C174.798630,98.902443 178.423233,94.428757 178.656052,86.766312 
	C178.969498,76.449875 176.802216,72.892822 167.836472,69.557076 
	C161.762039,67.297043 155.626068,65.197479 149.483612,63.127033 
	C145.858978,61.905281 143.924240,59.634621 144.228912,55.701595 
	C144.585007,51.104404 147.882278,49.109135 155.272476,49.023911 
	C162.938522,48.935513 166.549454,50.903267 167.019150,55.427311 
	C167.036285,55.592426 167.037491,55.761002 167.027573,55.926857 
	C166.807434,59.607300 167.788040,61.880386 172.220871,61.813862 
	C176.656036,61.747299 178.167526,59.709759 177.808914,54.827583 
z"/>
<path fill="#EEF5F8" opacity="1.000000" stroke="none" 
	d="
M177.821625,55.237274 
	C178.167526,59.709759 176.656036,61.747299 172.220871,61.813862 
	C167.788040,61.880386 166.807434,59.607300 167.027573,55.926857 
	C167.037491,55.761002 167.036285,55.592426 167.019150,55.427311 
	C166.549454,50.903267 162.938522,48.935513 155.272476,49.023911 
	C147.882278,49.109135 144.585007,51.104404 144.228912,55.701595 
	C143.924240,59.634621 145.858978,61.905281 149.483612,63.127033 
	C155.626068,65.197479 161.762039,67.297043 167.836472,69.557076 
	C176.802216,72.892822 178.969498,76.449875 178.656052,86.766312 
	C178.423233,94.428757 174.798630,98.902443 166.680222,101.287262 
	C158.797440,103.602859 150.869904,103.527443 143.070374,100.982986 
	C137.298416,99.099998 133.255981,95.458916 132.436310,89.036682 
	C131.777710,83.876236 132.537994,83.005135 137.848297,83.006821 
	C139.317093,83.007294 140.785873,83.006897 141.355118,84.066338 
	C143.273163,86.997673 144.746780,91.905006 147.200027,92.456749 
	C152.621902,93.676186 158.600952,93.146049 164.207718,92.331551 
	C165.710999,92.113167 167.753647,88.238403 167.628204,86.157967 
	C167.490494,83.873871 165.637650,80.647247 163.649994,79.717766 
	C157.806137,76.985023 151.530746,75.171059 145.413864,73.027176 
	C135.859467,69.678474 132.942413,64.977776 133.852722,54.326649 
	C134.460037,47.220501 139.806610,41.991364 148.492416,41.209206 
	C154.047897,40.708935 159.813324,40.875008 165.309006,41.793385 
	C172.333282,42.967201 176.864014,47.392399 177.821625,55.237274 
z"/>
</svg>