<?xml version="1.0" encoding="UTF-8"?>
<svg id="uuid-2f011609-242a-4d22-8ab8-0f2ac27371e4" data-name="Layer 1" xmlns="http://www.w3.org/2000/svg" xmlns:xlink="http://www.w3.org/1999/xlink" viewBox="0 0 220.08 220.7">
  <defs>
    <style>
      .uuid-ff44d9e6-743a-4d3e-9ed0-c61636fa38de {
        fill: url(#uuid-76d5ba08-4cad-430e-8f09-149431456d70);
        stroke-width: 0px;
      }
    </style>
    <linearGradient id="uuid-76d5ba08-4cad-430e-8f09-149431456d70" x1="0" y1="110.35" x2="220.08" y2="110.35" gradientUnits="userSpaceOnUse">
      <stop offset="0" stop-color="#ee20d6"/>
      <stop offset="1" stop-color="#0a2fb6"/>
    </linearGradient>
  </defs>
  <path class="uuid-ff44d9e6-743a-4d3e-9ed0-c61636fa38de" d="m80.2,8.12c-3.49-3.49-9.57-1.02-9.57,3.96s6.08,7.45,9.57,3.96c2.13-2.13,2.13-5.8,0-7.93h0ZM15.63,103.15c-3.49-3.49-9.57-1.02-9.57,3.96s6.08,7.45,9.57,3.97c2.13-2.13,2.13-5.8,0-7.93Zm101.74,101.92c-3.49-3.49-9.57-1.02-9.57,3.96s6.08,7.45,9.57,3.96c2.13-2.13,2.13-5.8,0-7.93Zm95.01-62.3c-3.49-3.49-9.57-1.02-9.57,3.96s6.08,7.45,9.57,3.96c2.13-2.13,2.13-5.8,0-7.93ZM163.44,12.24c-3.49-3.49-9.57-1.02-9.57,3.96s6.08,7.45,9.57,3.96c2.13-2.13,2.13-5.8,0-7.93Zm17.47,23.85c4.64,0,4.64,7.05,0,7.05s-4.64-7.05,0-7.05Zm-2.78,132.58c4.19,0,4.19,6.36,0,6.36s-4.19-6.36,0-6.36Zm-111.72,28.23c3.89,0,3.89,5.91,0,5.91s-3.89-5.91,0-5.91ZM19.79,63.56c2.49,0,4.52,2.02,4.52,4.52s-2.02,4.52-4.52,4.52-4.52-2.02-4.52-4.52,2.02-4.52,4.52-4.52ZM113.4,0c2.17,0,3.93,1.76,3.93,3.93s-1.76,3.93-3.93,3.93-3.93-1.76-3.93-3.93,1.76-3.93,3.93-3.93Zm33.74,73.38c-8.63-8.63-20.56-13.98-33.74-13.98s-25.11,5.34-33.74,13.98c-8.63,8.63-13.97,20.56-13.97,33.74s5.34,25.11,13.97,33.74c8.63,8.63,20.56,13.98,33.74,13.98s25.1-5.34,33.74-13.98c8.63-8.63,13.97-20.56,13.97-33.74s-5.34-25.11-13.97-33.74Zm-54.01,46.43c1.03,0,1.03,1.57,0,1.57-3.36,0-8.22,1.58-9.28,5.26-.29.99-1.79.55-1.5-.44,1.28-4.42,6.71-6.4,10.79-6.4Zm37.06-7.18c1.03,0,1.03,1.57,0,1.57-3.36,0-8.22,1.58-9.28,5.26-.29.99-1.79.55-1.5-.44,1.28-4.42,6.71-6.4,10.79-6.4Zm-37.06,5.33c2.15,0,4.18.41,5.97,1.12v-39.48c0-1.71,1.4-3.11,3.11-3.11h36.81c3.57,0,3.1,3.84,3.1,5.78v38.39c0,5.46-4.82,9.89-11.93,9.89s-12.88-4.43-12.88-9.89,5.77-9.89,12.88-9.89c2.15,0,4.18.41,5.97,1.12v-21.33h-31.09v37.28c0,5.46-4.82,9.89-11.93,9.89s-12.88-4.43-12.88-9.89,5.76-9.89,12.88-9.89Zm-10.01-96.45c4.68,12.13,9.12,23.31,13.55,34.49,4.35-1.42,8.95-2.31,13.71-2.57v-20.83c-7.23-3.23-5-14.23,3.03-14.23s10.27,10.99,3.03,14.23v20.83c6.83.38,13.32,2.03,19.24,4.73l16.61-32.77c-8.62-6.76-3.92-20.85,7.2-20.85,10.4,0,15.54,12.63,8.25,19.92-2.85,2.85-7.38,4.11-11.4,2.99l-16.61,32.77c3.42,1.92,6.61,4.21,9.51,6.8l9.62-9.62c-.59-3.23,1.93-6.3,5.25-6.3,2.95,0,5.34,2.39,5.34,5.34,0,3.31-3.07,5.84-6.3,5.25l-9.62,9.62c3.78,4.23,6.91,9.07,9.21,14.34l45.39-17.53c.12-3.03,2.62-5.45,5.68-5.45s5.68,2.55,5.68,5.68c0,5.15-6.27,7.5-9.73,3.99l-45.38,17.53c1.52,4.5,2.47,9.27,2.74,14.22h26.29c3.23-7.23,14.23-5,14.23,3.03s-11,10.27-14.23,3.03h-26.29c-.29,5.18-1.31,10.16-2.96,14.85l35.04,14.61c6.73-8.7,20.9-4.03,20.9,7.13,0,10.4-12.63,15.54-19.92,8.25-2.45-2.45-3.8-6.17-3.32-9.8l-35.05-14.61c-2.3,4.74-5.28,9.09-8.8,12.92l10.28,10.28c3.62-1.42,7.76,1.32,7.76,5.29,0,3.14-2.54,5.68-5.68,5.68-3.98,0-6.72-4.14-5.29-7.76l-10.28-10.28c-4.18,3.84-8.97,7.03-14.21,9.41l10.14,26.24c3,.42,5.31,3,5.31,6.12,0,3.42-2.77,6.18-6.18,6.18-5.29,0-8-6.22-4.76-10.13l-10.14-26.24c-4.29,1.39-8.82,2.25-13.51,2.51v36.96c8.6,2.31,11.57,13.17,5.22,19.52-7.29,7.29-19.92,2.15-19.92-8.25,0-5.34,3.6-9.92,8.64-11.27v-36.96c-6.83-.38-13.32-2.03-19.24-4.73l-10.11,19.95c2.98,3.59.49,9.31-4.38,9.31-3.14,0-5.68-2.55-5.68-5.68s2.76-5.87,6.02-5.67l10.11-19.95c-3.42-1.92-6.61-4.21-9.51-6.8l-27.78,27.78c1.83,4.77-1.71,10.1-6.95,10.1-4.11,0-7.44-3.33-7.44-7.44,0-5.24,5.32-8.77,10.09-6.95l27.78-27.78c-3.78-4.23-6.91-9.07-9.21-14.34l-15.71,6.07c-.19,2.77-2.5,4.96-5.32,4.96s-5.33-2.39-5.33-5.33c0-4.75,5.74-7,9.02-3.85l15.71-6.07c-1.52-4.5-2.47-9.27-2.74-14.22H22.93c-2.31,8.6-13.17,11.57-19.52,5.22-7.29-7.29-2.15-19.92,8.25-19.92,5.34,0,9.92,3.6,11.27,8.64h36.78c.29-5.18,1.31-10.16,2.96-14.85l-14.48-6.04c-4.59,4.34-12.54,1.2-12.54-5.41,0-4.11,3.33-7.44,7.44-7.44s7.34,3.23,7.43,7.26l14.48,6.04c2.3-4.74,5.28-9.09,8.8-12.92l-25.42-25.42c-3.38,1.22-7.14-1.35-7.14-5.02,0-2.95,2.39-5.33,5.33-5.33,3.67,0,6.24,3.76,5.02,7.14l25.42,25.42c4.13-3.79,8.85-6.95,14.01-9.31-4.43-11.19-8.87-22.43-13.54-34.52-10.93,1.16-17.22-12.13-9.49-19.85,7.29-7.29,19.92-2.15,19.92,8.25,0,3.86-1.84,7.26-4.79,9.42Z"/>
</svg>